{"accessors" : [{"bufferView" : 0, "byteOffset" : 0, "componentType" : 5123, "count" : 12060, "type" : "SCALAR", "max" : [2013], "min" : [0]}, {"bufferView" : 1, "byteOffset" : 0, "componentType" : 5126, "count" : 2014, "type" : "VEC3", "max" : [1.3587595224380493, 5.646951198577881, 1.9115530252456665], "min" : [-1.4824832677841187, 0, -1.4076699018478394]}, {"bufferView" : 1, "byteOffset" : 12, "componentType" : 5126, "count" : 2014, "type" : "VEC3", "max" : [0.9962787628173828, 0.9982659220695496, 0.9963456988334656], "min" : [-0.9984347224235535, -0.9973501563072205, -0.9987464547157288]}, {"bufferView" : 1, "byteOffset" : 24, "componentType" : 5126, "count" : 2014, "type" : "VEC2", "max" : [1.3333333730697632, 19.243623733520508], "min" : [0, 0]}, {"bufferView" : 0, "byteOffset" : 24120, "componentType" : 5123, "count" : 2688, "type" : "SCALAR", "max" : [1791], "min" : [0]}, {"bufferView" : 2, "byteOffset" : 0, "componentType" : 5126, "count" : 1792, "type" : "VEC3", "max" : [1.9909191131591797, 6.3465657234191895, 2.454890727996826], "min" : [-2.1264381408691406, 0.7227708101272583, -2.1014227867126465]}, {"bufferView" : 2, "byteOffset" : 12, "componentType" : 5126, "count" : 1792, "type" : "VEC3", "max" : [0.9996349811553955, 0.9617772698402405, 0.9880367517471313], "min" : [-0.9996349811553955, -0.9617772698402405, -0.9880367517471313]}, {"bufferView" : 2, "byteOffset" : 24, "componentType" : 5126, "count" : 1792, "type" : "VEC2", "max" : [1, 1], "min" : [0, 0]}], "asset" : {"generator" : "Aspose.3D 21.1", "version" : "2.0"}, "buffers" : [{"uri" : "buffer.bin", "byteLength" : 736704}], "bufferViews" : [{"buffer" : 0, "byteOffset" : 0, "byteLength" : 29496, "target" : 34963}, {"buffer" : 0, "byteOffset" : 29500, "byteLength" : 385920, "byteStride" : 32, "target" : 34962}, {"buffer" : 0, "byteOffset" : 415424, "byteLength" : 86016, "byteStride" : 32, "target" : 34962}, {"buffer" : 0, "byteOffset" : 501444, "byteLength" : 235259}], "images" : [{"mimeType" : "image/png", "bufferView" : 3}], "materials" : [{"pbrMetallicRoughness" : {"baseColorFactor" : [0.3411764705882353, 0.1411764705882353, 0.058823529411764705, 1], "metallicFactor" : 0, "roughnessFactor" : 1}, "emissiveFactor" : [0, 0, 0], "alphaMode" : "OPAQUE", "doubleSided" : false}, {"pbrMetallicRoughness" : {"baseColorFactor" : [0.6470588235294118, 0.9450980392156862, 0.3137254901960784, 1], "baseColorTexture" : {"index" : 0, "texCoord" : 0}, "metallicFactor" : 0, "roughnessFactor" : 1}, "emissiveFactor" : [0, 0, 0], "alphaMode" : "OPAQUE", "doubleSided" : false}], "meshes" : [{"primitives" : [{"attributes" : {"POSITION" : 1, "NORMAL" : 2, "TEXCOORD_0" : 3}, "indices" : 0, "material" : 0, "mode" : 4}]}, {"primitives" : [{"attributes" : {"POSITION" : 5, "NORMAL" : 6, "TEXCOORD_0" : 7}, "indices" : 4, "material" : 1, "mode" : 4}]}], "nodes" : [{"mesh" : 0}, {"mesh" : 1}, {"children" : [0, 1], "matrix" : [1, 0, 0, 0, 0, 1, 0, 0, 0, 0, 1, 0, 0, -3, 0, 1]}], "samplers" : [{"magFilter" : 9729, "minFilter" : 9987, "wrapS" : 10497, "wrapT" : 10497}], "scene" : 0, "scenes" : [{"nodes" : [2]}], "textures" : [{"sampler" : 0, "source" : 0}]}